<svg width="190" height="20" viewBox="0 0 190 20" fill="none" xmlns="http://www.w3.org/2000/svg">
<path d="M13.6747 6.73644C13.6747 7.81108 13.4361 8.79763 12.959 9.6961C12.4819 10.577 11.7491 11.2904 10.7608 11.8366C9.77249 12.3827 8.5456 12.6558 7.08016 12.6558H4.37078V19.315H0V0.764256H7.08016C8.51152 0.764256 9.72137 1.0197 10.7097 1.5306C11.698 2.04149 12.4393 2.74617 12.9334 3.64464C13.4276 4.54311 13.6747 5.57371 13.6747 6.73644ZM6.74787 9.06189C7.58284 9.06189 8.2048 8.85929 8.61376 8.4541C9.02273 8.04891 9.22721 7.47636 9.22721 6.73644C9.22721 5.99652 9.02273 5.42397 8.61376 5.01878C8.2048 4.61358 7.58284 4.41099 6.74787 4.41099H4.37078V9.06189H6.74787Z" fill="white"/>
<path d="M24.6214 19.315L20.8896 12.3122H19.8417V19.315H15.4709V0.764256H22.8066C24.221 0.764256 25.4223 1.0197 26.4106 1.5306C27.416 2.04149 28.1657 2.74617 28.6599 3.64464C29.1541 4.5255 29.4011 5.51205 29.4011 6.60431C29.4011 7.83751 29.0603 8.93857 28.3787 9.90751C27.7142 10.8764 26.7258 11.5635 25.4138 11.9687L29.5545 19.315H24.6214ZM19.8417 9.11474H22.551C23.3519 9.11474 23.9483 8.91215 24.3402 8.50695C24.7492 8.10176 24.9537 7.52921 24.9537 6.78929C24.9537 6.08461 24.7492 5.52967 24.3402 5.12448C23.9483 4.71929 23.3519 4.51669 22.551 4.51669H19.8417V9.11474Z" fill="white"/>
<path d="M40.1516 19.5C38.4646 19.5 36.914 19.0948 35.4996 18.2844C34.1023 17.474 32.9862 16.3465 32.1512 14.9019C31.3333 13.4397 30.9244 11.8013 30.9244 9.98679C30.9244 8.17223 31.3333 6.54265 32.1512 5.09805C32.9862 3.65345 34.1023 2.52596 35.4996 1.71558C36.914 0.905192 38.4646 0.5 40.1516 0.5C41.8385 0.5 43.3807 0.905192 44.778 1.71558C46.1923 2.52596 47.2999 3.65345 48.1008 5.09805C48.9187 6.54265 49.3277 8.17223 49.3277 9.98679C49.3277 11.8013 48.9187 13.4397 48.1008 14.9019C47.2828 16.3465 46.1752 17.474 44.778 18.2844C43.3807 19.0948 41.8385 19.5 40.1516 19.5ZM40.1516 15.3776C41.5829 15.3776 42.7246 14.8843 43.5766 13.8978C44.4457 12.9112 44.8802 11.6076 44.8802 9.98679C44.8802 8.3484 44.4457 7.04474 43.5766 6.0758C42.7246 5.08924 41.5829 4.59597 40.1516 4.59597C38.7032 4.59597 37.5444 5.08043 36.6754 6.04937C35.8234 7.01831 35.3974 8.33078 35.3974 9.98679C35.3974 11.6252 35.8234 12.9376 36.6754 13.9242C37.5444 14.8931 38.7032 15.3776 40.1516 15.3776Z" fill="white"/>
<path d="M59.766 19.5C58.079 19.5 56.5284 19.0948 55.114 18.2844C53.7167 17.474 52.6006 16.3465 51.7657 14.9019C50.9477 13.4397 50.5388 11.8013 50.5388 9.98679C50.5388 8.17223 50.9477 6.54265 51.7657 5.09805C52.6006 3.65345 53.7167 2.52596 55.114 1.71558C56.5284 0.905192 58.079 0.5 59.766 0.5C61.4529 0.5 62.9951 0.905192 64.3924 1.71558C65.8067 2.52596 66.9143 3.65345 67.7152 5.09805C68.5331 6.54265 68.9421 8.17223 68.9421 9.98679C68.9421 11.8013 68.5331 13.4397 67.7152 14.9019C66.8972 16.3465 65.7896 17.474 64.3924 18.2844C62.9951 19.0948 61.4529 19.5 59.766 19.5ZM59.766 15.3776C61.1973 15.3776 62.339 14.8843 63.191 13.8978C64.0601 12.9112 64.4946 11.6076 64.4946 9.98679C64.4946 8.3484 64.0601 7.04474 63.191 6.0758C62.339 5.08924 61.1973 4.59597 59.766 4.59597C58.3176 4.59597 57.1588 5.08043 56.2898 6.04937C55.4378 7.01831 55.0118 8.33078 55.0118 9.98679C55.0118 11.6252 55.4378 12.9376 56.2898 13.9242C57.1588 14.8931 58.3176 15.3776 59.766 15.3776Z" fill="white"/>
<path d="M82.5754 0.764256V4.38456H75.2652V8.29555H80.7351V11.8102H75.2652V19.315H70.8944V0.764256H82.5754Z" fill="white"/>
<path d="M101.242 6.63074C100.918 6.01414 100.449 5.54729 99.8359 5.23018C99.2395 4.89546 98.5323 4.72809 97.7144 4.72809C96.3001 4.72809 95.1669 5.21256 94.3149 6.1815C93.4629 7.13282 93.0369 8.41006 93.0369 10.0132C93.0369 11.7221 93.4799 13.061 94.366 14.0299C95.2691 14.9812 96.5045 15.4569 98.0722 15.4569C99.1458 15.4569 100.049 15.175 100.782 14.6113C101.531 14.0475 102.077 13.2371 102.417 12.1801H96.8709V8.85049H106.379V13.0522C106.056 14.1796 105.502 15.2279 104.718 16.1968C103.951 17.1657 102.971 17.9497 101.778 18.5487C100.586 19.1477 99.2395 19.4471 97.7399 19.4471C95.9678 19.4471 94.383 19.0508 92.9858 18.258C91.6055 17.4476 90.5235 16.3289 89.7396 14.9019C88.9728 13.475 88.5894 11.8454 88.5894 10.0132C88.5894 8.18104 88.9728 6.55146 89.7396 5.12448C90.5235 3.67988 91.6055 2.5612 92.9858 1.76843C94.366 0.958043 95.9422 0.55285 97.7144 0.55285C99.8614 0.55285 101.668 1.09017 103.133 2.16481C104.616 3.23945 105.595 4.72809 106.073 6.63074H101.242Z" fill="white"/>
<path d="M117.472 19.315L113.74 12.3122H112.692V19.315H108.321V0.764256H115.657C117.071 0.764256 118.272 1.0197 119.261 1.5306C120.266 2.04149 121.016 2.74617 121.51 3.64464C122.004 4.5255 122.251 5.51205 122.251 6.60431C122.251 7.83751 121.911 8.93857 121.229 9.90751C120.564 10.8764 119.576 11.5635 118.264 11.9687L122.405 19.315H117.472ZM112.692 9.11474H115.401C116.202 9.11474 116.798 8.91215 117.19 8.50695C117.599 8.10176 117.804 7.52921 117.804 6.78929C117.804 6.08461 117.599 5.52967 117.19 5.12448C116.798 4.71929 116.202 4.51669 115.401 4.51669H112.692V9.11474Z" fill="white"/>
<path d="M133.002 19.5C131.315 19.5 129.764 19.0948 128.35 18.2844C126.953 17.474 125.836 16.3465 125.001 14.9019C124.183 13.4397 123.775 11.8013 123.775 9.98679C123.775 8.17223 124.183 6.54265 125.001 5.09805C125.836 3.65345 126.953 2.52596 128.35 1.71558C129.764 0.905192 131.315 0.5 133.002 0.5C134.689 0.5 136.231 0.905192 137.628 1.71558C139.042 2.52596 140.15 3.65345 140.951 5.09805C141.769 6.54265 142.178 8.17223 142.178 9.98679C142.178 11.8013 141.769 13.4397 140.951 14.9019C140.133 16.3465 139.025 17.474 137.628 18.2844C136.231 19.0948 134.689 19.5 133.002 19.5ZM133.002 15.3776C134.433 15.3776 135.575 14.8843 136.427 13.8978C137.296 12.9112 137.73 11.6076 137.73 9.98679C137.73 8.3484 137.296 7.04474 136.427 6.0758C135.575 5.08924 134.433 4.59597 133.002 4.59597C131.553 4.59597 130.395 5.08043 129.526 6.04937C128.674 7.01831 128.248 8.33078 128.248 9.98679C128.248 11.6252 128.674 12.9376 129.526 13.9242C130.395 14.8931 131.553 15.3776 133.002 15.3776Z" fill="white"/>
<path d="M148.424 0.764256V11.863C148.424 12.9729 148.688 13.8273 149.217 14.4263C149.745 15.0253 150.52 15.3248 151.543 15.3248C152.565 15.3248 153.349 15.0253 153.894 14.4263C154.439 13.8273 154.712 12.9729 154.712 11.863V0.764256H159.083V11.8366C159.083 13.4926 158.742 14.8931 158.06 16.0382C157.379 17.1834 156.459 18.0466 155.3 18.628C154.158 19.2093 152.88 19.5 151.466 19.5C150.052 19.5 148.782 19.2181 147.657 18.6544C146.55 18.073 145.672 17.2098 145.025 16.0647C144.377 14.9019 144.053 13.4926 144.053 11.8366V0.764256H148.424Z" fill="white"/>
<path d="M175.347 6.73644C175.347 7.81108 175.109 8.79763 174.632 9.6961C174.155 10.577 173.422 11.2904 172.434 11.8366C171.445 12.3827 170.218 12.6558 168.753 12.6558H166.044V19.315H161.673V0.764256H168.753C170.184 0.764256 171.394 1.0197 172.383 1.5306C173.371 2.04149 174.112 2.74617 174.606 3.64464C175.1 4.54311 175.347 5.57371 175.347 6.73644ZM168.421 9.06189C169.256 9.06189 169.878 8.85929 170.287 8.4541C170.696 8.04891 170.9 7.47636 170.9 6.73644C170.9 5.99652 170.696 5.42397 170.287 5.01878C169.878 4.61358 169.256 4.41099 168.421 4.41099H166.044V9.06189H168.421Z" fill="white"/>
<ellipse cx="187.87" cy="17.113" rx="2.13001" ry="2.20213" fill="#ECC600"/>
</svg>
