<?xml version="1.0" encoding="UTF-8"?>
<svg width="67px" height="82px" viewBox="0 0 67 82" version="1.1" xmlns="http://www.w3.org/2000/svg" xmlns:xlink="http://www.w3.org/1999/xlink">
    <!-- Generator: Sketch 51.2 (57519) - http://www.bohemiancoding.com/sketch -->
    <title>Logo</title>
    <desc>Created with Sketch.</desc>
    <defs></defs>
    <g id="One-Pager-Version" stroke="none" stroke-width="1" fill="none" fill-rule="evenodd">
        <g id="Home-Page" transform="translate(-98.000000, -37.000000)" fill="#FFFFFF">
            <g id="Logo-Lght" transform="translate(98.000000, 37.000000)">
                <g id="colablogo">
                    <path d="M62.5103093,17.5267176 L49.4902062,17.5267176 L49.4902062,13.2841391 L66.7237113,13.2841391 L66.7237113,53.6929601 L62.5103093,53.6929601 L62.5103093,17.5267176 Z M4.5242268,41.8693808 L0.310824742,41.8693808 L0.310824742,82 L23.0701031,82 L23.0701031,77.7574215 L4.5242268,77.7574215 L4.5242268,41.8693808 Z M9.49742268,6.81594572 L8.53041237,6.81594572 L8.53041237,5.91178965 L8.53041237,0.938931298 L8.53041237,0.278201866 L9.56649485,0.278201866 L10.7407216,0.278201866 L11.3623711,0.278201866 L11.5695876,0.278201866 L11.6731959,0.278201866 C13.6417526,0.312977099 15.0231959,1.70398643 15.0231959,3.54707379 C15.0231959,5.39016115 13.6417526,6.78117048 11.6386598,6.81594572 L11.6041237,6.81594572 L11.3969072,6.81594572 L10.7752577,6.81594572 L9.49742268,6.81594572 Z M9.77371134,5.66836302 L11.6386598,5.66836302 C12.9164948,5.63358779 13.7798969,4.76420696 13.7798969,3.54707379 C13.7798969,2.32994063 12.9510309,1.42578456 11.6731959,1.39100933 L9.80824742,1.39100933 L9.70463918,1.39100933 L9.70463918,5.66836302 L9.77371134,5.66836302 Z M3.00463918,6.81594572 L4.1443299,6.81594572 L6.80360825,6.81594572 L6.80360825,5.66836302 L4.1443299,5.66836302 L4.1443299,1.42578456 L6.80360825,1.42578456 L6.80360825,0.278201866 L4.1443299,0.278201866 L3.00463918,0.278201866 L0.310824742,0.278201866 L0.310824742,1.42578456 L2.97010309,1.42578456 L2.97010309,5.66836302 L0.310824742,5.66836302 L0.310824742,6.81594572 L3.00463918,6.81594572 Z M31.1860825,3.54707379 C31.1860825,5.49448685 29.5974227,7.09414758 27.628866,7.09414758 C25.6603093,7.09414758 24.0716495,5.49448685 24.0716495,3.54707379 C24.0371134,1.59966073 25.6257732,0 27.5943299,0 C29.5628866,0 31.1860825,1.59966073 31.1860825,3.54707379 Z M27.5943299,1.21713316 C26.3164948,1.21713316 25.2458763,2.26039016 25.2458763,3.54707379 C25.2458763,4.83375742 26.2819588,5.87701442 27.5943299,5.87701442 C28.8721649,5.87701442 29.9427835,4.83375742 29.9427835,3.54707379 C29.9427835,2.26039016 28.906701,1.21713316 27.5943299,1.21713316 Z M16.4391753,0.278201866 L16.4391753,1.42578456 L16.4391753,5.66836302 L16.4391753,6.81594572 L21.3087629,6.81594572 L23.0010309,6.81594572 L23.0010309,5.66836302 L17.6479381,5.66836302 L17.6479381,4.10347752 L21.8268041,4.10347752 L21.8268041,2.99067006 L17.6134021,2.99067006 L17.6134021,1.42578456 L22.9664948,1.42578456 L22.9664948,0.278201866 L21.2396907,0.278201866 L16.4391753,0.278201866 Z M46.2092784,23.6819338 C46.2092784,29.6284987 41.4087629,34.1492791 35.5030928,34.1492791 C29.5974227,34.1492791 24.8659794,29.6284987 24.8659794,23.6819338 C24.8659794,17.7701442 29.5974227,13.2145886 35.5030928,13.2145886 C41.4087629,13.2145886 46.2092784,17.7701442 46.2092784,23.6819338 Z M35.5376289,17.0398643 C31.807732,17.0398643 29.0793814,19.821883 29.0793814,23.6819338 C29.0793814,27.6115352 31.7731959,30.3240034 35.5376289,30.3240034 C39.2329897,30.3240034 41.9958763,27.6115352 41.9958763,23.6819338 C41.9958763,19.821883 39.2329897,17.0398643 35.5376289,17.0398643 Z M10.6716495,34.1840543 C14.5742268,34.1840543 17.8206186,32.2714165 19.5474227,29.1764207 L16.4391753,26.985581 C15.092268,29.1416455 13.2273196,30.3935539 10.7061856,30.3935539 C6.97628866,30.3935539 4.21340206,27.6810857 4.21340206,23.7862595 C4.21340206,19.821883 6.97628866,17.0398643 10.7061856,17.0398643 C13.2273196,17.0398643 15.1268041,18.2917727 16.4391753,20.4478372 L19.5474227,18.2569975 C17.7860825,15.1620017 14.5742268,13.2145886 10.7061856,13.2145886 C4.7314433,13.2145886 0,17.735369 0,23.6819338 C0,29.6284987 4.69690722,34.1840543 10.6716495,34.1840543 Z M60.4381443,82 L53.5654639,82 L51.5623711,82 L51.5623711,61.9346904 L55.4994845,61.9346904 L58.642268,61.9346904 C62.3376289,61.9346904 64.9623711,64.2298558 64.9623711,67.533503 C64.9623711,69.028838 64.4097938,70.2459712 63.4773196,71.1501272 C65.6876289,71.9499576 67,73.6887193 67,76.1229856 C67,79.5657337 64.3061856,82 60.4381443,82 Z M55.4994845,70.0373198 L58.2969072,70.0373198 C59.9891753,70.0373198 60.8871134,69.0983885 60.8871134,67.7421544 C60.8871134,66.351145 59.9891753,65.446989 58.2969072,65.446989 L55.4994845,65.446989 L55.4994845,70.0373198 Z M62.9938144,75.9491094 C62.9938144,74.3842239 61.9231959,73.4105174 60.1618557,73.4105174 L55.4994845,73.4105174 L55.4994845,78.4529262 L60.1618557,78.4529262 C61.9231959,78.4529262 62.9938144,77.5139949 62.9938144,75.9491094 Z M31.807732,82 L27.4907216,82 L36.2283505,61.9346904 L37.5752577,61.9346904 L46.2783505,82 L41.9613402,82 L40.8561856,79.4266327 L32.8438144,79.4266327 L31.807732,82 Z M36.8845361,69.480916 L34.2943299,76.1229856 L39.4402062,76.1229856 L36.8845361,69.480916 Z" id="Shape" fill-rule="nonzero"></path>
                </g>
            </g>
        </g>
    </g>
</svg>